<?xml version="1.0" encoding="UTF-8" standalone="no"?>
<!DOCTYPE svg PUBLIC "-//W3C//DTD SVG 1.1//EN" "http://www.w3.org/Graphics/SVG/1.1/DTD/svg11.dtd">
<svg xmlns:dc="http://purl.org/dc/elements/1.1/" xmlns:xl="http://www.w3.org/1999/xlink" version="1.1" xmlns="http://www.w3.org/2000/svg" viewBox="17.1 20.4 65.8 90" width="65.8" height="90">
  <defs/>
  <metadata> Produced by OmniGraffle 7.7 
    <dc:date>2019-04-27 13:34:15 +0000</dc:date>
  </metadata>
  <g id="Canvas_1" fill-opacity="1" stroke-dasharray="none" stroke="none" stroke-opacity="1" fill="none">
    <title>Canvas 1</title>
    <g id="Canvas_1: Layer 1">
      <title>Layer 1</title>
      <g id="Graphic_30">
        <path d="M 50 20.4 C 31.8 20.4 17.1 35.1 17.1 53.3 C 17.1 78.8 50 110.4 50 110.4 C 50 110.4 82.9 78.7 82.9 53.3 C 82.9 35.1 68.2 20.4 50 20.4 Z M 38.236897 42.429897 C 40.14343 44.33642 40.14343 47.4275 38.236897 49.33402 C 36.330376 51.24055 33.239296 51.24055 31.332775 49.33402 C 29.426244 47.4275 29.426244 44.33642 31.332775 42.429897 C 33.239296 40.523365 36.330376 40.523365 38.236897 42.429897 M 55.06353 44.357713 C 57.860054 47.154224 57.860054 51.68826 55.06353 54.48477 C 52.26702 57.281297 47.73298 57.281297 44.93647 54.48477 C 42.139946 51.68826 42.139946 47.154224 44.93647 44.357713 C 47.73298 41.56119 52.26702 41.56119 55.06353 44.357713 M 56.67219 55.370176 L 56.67219 55.370176 C 60.553405 57.930205 63.122385 62.32522 63.120595 67.32354 C 63.120595 69.299955 61.51655 70.904 59.540135 70.904 L 40.445543 70.904 C 38.46913 70.904 36.865083 69.299955 36.865083 67.32354 C 36.865083 62.31985 39.432273 57.926624 43.31886 55.364805 C 44.95871 57.20874 47.33972 58.37239 49.99642 58.37239 C 52.65133 58.37239 55.032336 57.20695 56.67219 55.370176 Z M 42.337817 53.87354 L 42.337816 53.873544 C 39.79569 55.54741 37.85508 57.86934 36.61266 60.52962 L 27.627497 60.52962 C 26.63929 60.52962 25.837267 59.727596 25.837267 58.73939 L 25.837267 58.087745 C 25.837267 54.87786 27.403718 52.05109 29.797256 50.27339 C 31.019983 51.66082 32.79052 52.554144 34.784836 52.554144 C 36.779152 52.554144 38.5479 51.66082 39.772417 50.27518 C 40.97545 51.168506 41.958287 52.328575 42.651106 53.66767 Z M 68.65648 42.429897 C 70.563015 44.33642 70.563015 47.4275 68.65648 49.33402 C 66.74996 51.24055 63.65888 51.24055 61.75236 49.33402 C 59.84583 47.4275 59.84583 44.33642 61.75236 42.429897 C 63.65888 40.523365 66.74996 40.523365 68.65648 42.429897 M 70.19379 50.27339 L 70.19379 50.27339 C 72.58733 52.05109 74.15378 54.87786 74.15557 58.087745 L 74.15557 58.73939 C 74.15557 59.727596 73.35355 60.52962 72.36534 60.52962 L 63.38018 60.52962 C 62.13776 57.86934 60.19536 55.54562 57.65681 53.873544 L 57.34173 53.66767 C 58.03276 52.328575 59.01739 51.168506 60.22042 50.27518 C 61.44136 51.66082 63.2119 52.554144 65.20621 52.554144 C 67.20053 52.554144 68.97107 51.66082 70.19379 50.27339 Z" fill="#c50000"/>
      </g>
    </g>
  </g>
</svg>
