<?xml version="1.0" standalone="no"?>
<!DOCTYPE svg PUBLIC "-//W3C//DTD SVG 20010904//EN"
 "http://www.w3.org/TR/2001/REC-SVG-20010904/DTD/svg10.dtd">
<svg version="1.0" xmlns="http://www.w3.org/2000/svg"
 width="720.000000pt" height="720.000000pt" viewBox="0 0 720.000000 720.000000"
 preserveAspectRatio="xMidYMid meet">
<metadata>
Created by potrace 1.11, written by Peter Selinger 2001-2013
</metadata>
<g transform="translate(0.000000,720.000000) scale(0.100000,-0.100000)"
fill="#000000" stroke="none">
<path d="M3418 7196 c-1 -2 -34 -6 -73 -10 -104 -10 -147 -15 -175 -21 -43 -9
-74 -15 -105 -19 -87 -13 -436 -121 -443 -138 -2 -5 -7 -6 -11 -4 -4 3 -74
-29 -157 -70 -178 -88 -209 -106 -303 -170 -40 -27 -80 -53 -89 -59 -9 -5 -19
-12 -22 -15 -3 -3 -25 -21 -50 -40 -50 -38 -47 -36 -121 -100 -124 -108 -267
-263 -379 -410 -19 -25 -37 -47 -40 -50 -3 -3 -11 -14 -17 -25 -7 -11 -42 -68
-78 -128 -37 -59 -95 -167 -129 -240 -61 -126 -144 -344 -150 -390 -2 -12 -6
-29 -10 -37 -9 -23 -53 -219 -61 -270 -28 -193 -32 -253 -29 -445 2 -196 4
-232 19 -342 6 -49 40 -227 55 -293 6 -25 13 -56 15 -70 3 -14 8 -32 11 -40 3
-8 8 -25 10 -37 6 -31 110 -347 128 -386 7 -18 28 -70 46 -117 18 -47 38 -91
43 -97 5 -7 6 -13 2 -13 -5 0 -1 -8 8 -17 8 -10 16 -22 16 -26 -1 -13 51 -124
137 -292 81 -159 105 -204 159 -300 16 -27 36 -64 46 -81 10 -18 40 -69 68
-114 28 -45 51 -85 51 -89 0 -4 9 -16 20 -26 11 -10 20 -22 20 -27 0 -5 40
-70 90 -145 50 -74 90 -139 90 -143 0 -5 4 -10 8 -12 4 -2 37 -46 72 -98 36
-52 68 -96 72 -98 5 -2 8 -10 8 -17 0 -7 4 -15 8 -17 5 -2 28 -30 52 -63 83
-114 125 -170 183 -245 31 -41 61 -79 65 -85 31 -42 292 -361 339 -415 56 -64
67 -77 96 -113 18 -21 43 -51 57 -66 14 -15 59 -65 100 -111 152 -170 298
-326 428 -457 l102 -104 98 100 c98 99 295 308 348 369 16 18 51 56 77 84 26
29 67 74 90 102 23 27 56 66 74 85 17 20 73 86 123 146 119 142 118 141 165
200 22 28 42 52 45 55 3 3 46 57 95 120 49 63 94 120 100 127 5 6 29 38 52 70
23 32 66 90 95 130 29 39 59 80 66 90 7 10 38 54 69 98 53 76 256 380 278 417
6 10 42 70 81 135 223 369 427 780 541 1093 72 196 141 422 145 473 1 15 5 27
8 27 3 0 6 8 7 18 1 9 11 67 22 127 40 216 46 284 46 510 -1 195 -6 279 -24
382 -5 32 -12 72 -15 88 -9 56 -45 212 -53 235 -3 8 -7 20 -8 25 -9 38 -49
155 -80 235 -41 103 -149 327 -164 340 -4 3 -18 26 -31 53 -14 26 -28 47 -32
47 -5 0 -8 5 -8 10 0 16 -98 153 -170 240 -105 124 -168 191 -287 301 -79 72
-194 162 -262 204 -9 6 -18 12 -21 15 -14 15 -138 90 -148 90 -7 0 -12 3 -12
8 0 4 -10 12 -23 18 -26 12 -161 80 -197 99 -14 7 -56 25 -95 40 -38 14 -79
30 -90 35 -11 5 -38 14 -60 20 -22 6 -49 15 -60 20 -19 9 -156 46 -204 55 -13
2 -30 6 -39 9 -9 3 -33 7 -52 10 -19 3 -46 8 -60 10 -14 3 -47 8 -75 11 -27 4
-61 9 -75 11 -29 5 -456 14 -462 10z m-885 -1674 c255 -113 320 -437 127 -632
-146 -147 -373 -157 -529 -24 -41 35 -101 114 -105 137 -1 7 -4 17 -7 22 -26
43 -30 164 -8 241 37 133 127 225 264 271 58 19 199 11 258 -15z m2408 8 c33
-12 68 -26 77 -33 51 -39 131 -129 150 -169 126 -269 -85 -576 -381 -553 -143
11 -258 88 -320 216 -108 219 6 469 248 548 53 17 161 13 226 -9z m-1212 -93
c20 -5 43 -12 51 -15 8 -3 17 -6 20 -7 47 -12 135 -71 194 -129 118 -115 171
-236 175 -397 7 -281 -176 -506 -469 -576 -35 -8 -201 -3 -219 7 -11 5 -24 9
-28 8 -15 -5 -108 35 -162 69 -72 46 -152 132 -191 205 -29 54 -39 80 -58 148
-15 53 -7 243 12 300 23 67 61 139 93 177 14 15 28 33 31 39 15 23 125 105
170 125 89 42 154 56 251 56 52 0 110 -4 130 -10z m-1669 -697 c22 -21 76 -51
135 -75 58 -24 87 -29 170 -32 97 -2 144 6 220 38 17 7 33 13 37 13 4 1 13 7
20 14 6 6 17 12 22 12 6 0 36 22 66 50 52 47 55 49 75 32 32 -27 125 -122 125
-128 0 -3 6 -12 13 -20 27 -33 33 -41 50 -72 11 -19 17 -34 15 -36 -115 -79
-143 -103 -238 -198 -72 -73 -157 -190 -206 -283 l-31 -60 -377 -3 c-416 -3
-411 -3 -461 61 -24 33 -25 38 -21 148 4 109 9 157 23 189 3 8 8 24 10 35 7
42 84 183 135 247 29 37 56 68 59 68 4 0 24 16 45 35 l38 35 35 -32 c20 -18
38 -35 41 -38z m2409 19 c39 -38 119 -83 186 -104 155 -48 293 -32 431 51 33
19 64 40 69 47 6 7 22 23 37 36 l27 23 73 -73 c166 -166 239 -342 235 -568
l-2 -103 -45 -39 -44 -38 -383 -1 -382 0 -26 47 c-46 87 -115 192 -158 241
-88 98 -176 177 -249 225 -38 25 -47 36 -42 52 4 11 10 22 13 25 3 3 19 25 35
50 16 24 60 75 98 113 76 75 70 74 127 16z m-1372 -388 c94 -97 260 -182 388
-198 95 -13 268 -5 297 13 4 3 16 7 25 9 10 2 32 8 48 15 17 6 31 11 33 11 10
-4 170 106 202 139 35 35 43 39 61 30 18 -10 139 -109 164 -135 32 -32 116
-136 142 -175 55 -82 129 -240 148 -320 1 -3 5 -16 8 -30 4 -14 9 -36 11 -50
3 -14 5 -25 6 -25 4 0 11 -76 15 -163 5 -121 -15 -180 -85 -249 -27 -26 -53
-48 -57 -49 -4 0 -20 -6 -36 -12 -47 -20 -81 -23 -199 -21 -10 0 -46 0 -81 -1
-35 -1 -67 0 -73 1 -5 1 -13 0 -19 -1 -23 -4 -227 0 -235 5 -5 3 -11 1 -14 -4
-4 -5 -19 -6 -34 -2 -15 3 -45 4 -67 1 -22 -3 -59 -2 -83 1 -23 3 -44 3 -47 0
-2 -4 -27 -6 -57 -4 -29 1 -64 3 -78 3 -14 1 -55 1 -92 0 -38 -1 -72 1 -77 5
-5 3 -12 2 -15 -3 -2 -4 -28 -7 -58 -5 -29 1 -64 3 -78 3 -14 1 -55 1 -92 0
-38 -1 -72 1 -77 5 -5 3 -13 0 -16 -6 -4 -5 -13 -8 -20 -5 -8 3 -49 6 -93 7
-101 2 -168 27 -225 84 -68 66 -90 134 -83 255 2 52 7 109 10 125 3 17 9 46
12 65 8 46 53 182 66 198 6 6 8 12 4 12 -9 0 63 129 115 205 41 59 153 181
201 220 7 6 31 25 53 43 22 17 43 32 47 32 4 0 20 -13 35 -29z"/>
</g>
</svg>
